<?xml version="1.0" encoding="UTF-8"?>
<svg xmlns="http://www.w3.org/2000/svg" xmlns:xlink="http://www.w3.org/1999/xlink" viewBox="0 0 30 30" width="30px" height="30px">
<g id="surface223629667">
<path style=" stroke:none;fill-rule:nonzero;fill:rgb(20.392157%,59.607846%,85.882354%);fill-opacity:1;" d="M 15 2.5 C 8.097656 2.5 2.5 8.097656 2.5 15 C 2.5 21.902344 8.097656 27.5 15 27.5 C 21.902344 27.5 27.5 21.902344 27.5 15 C 27.5 8.097656 21.902344 2.5 15 2.5 Z M 15 2.5 "/>
<path style=" stroke:none;fill-rule:nonzero;fill:rgb(100%,100%,100%);fill-opacity:1;" d="M 22.5 10.699219 C 21.949219 10.945312 21.25 11.171875 20.625 11.25 C 21.261719 10.871094 22.269531 10.085938 22.5 9.375 C 21.90625 9.722656 20.832031 10.097656 20.128906 10.234375 C 19.570312 9.640625 18.769531 9.375 17.886719 9.375 C 16.1875 9.375 15 10.816406 15 12.5 L 15 13.75 C 12.5 13.75 10.0625 11.84375 8.546875 10 C 8.277344 10.449219 8.128906 10.976562 8.128906 11.535156 C 8.128906 12.671875 9.171875 13.828125 10 14.375 C 9.496094 14.359375 8.539062 13.972656 8.125 13.75 C 8.125 13.761719 8.125 13.773438 8.125 13.785156 C 8.125 15.265625 9.164062 16.269531 10.570312 16.550781 C 10.3125 16.621094 10 16.875 8.796875 16.875 C 9.1875 18.085938 11.152344 18.722656 12.5 18.75 C 11.445312 19.566406 9.566406 20 8.125 20 C 7.875 20 7.742188 20.015625 7.5 19.984375 C 8.859375 20.847656 10.761719 21.25 12.5 21.25 C 18.160156 21.25 21.25 16.925781 21.25 12.894531 C 21.25 12.761719 21.246094 12.316406 21.238281 12.1875 C 21.84375 11.761719 22.089844 11.316406 22.5 10.699219 "/>
</g>
</svg>
